<svg width="20" height="20" viewBox="0 0 20 20" fill="none" xmlns="http://www.w3.org/2000/svg">
<path fill-rule="evenodd" clip-rule="evenodd" d="M10.2005 0.322266C4.90167 0.322266 0.606201 4.63806 0.606201 9.96185C0.606201 15.2856 4.90167 19.6014 10.2005 19.6014C15.4992 19.6014 19.7947 15.2856 19.7947 9.96185C19.7947 4.63806 15.4992 0.322266 10.2005 0.322266V0.322266ZM9.20649 18.1647C7.38616 17.9457 5.70191 17.127 4.38542 15.8043C2.83217 14.2437 1.97681 12.1689 1.97681 9.96185C1.97681 7.97508 2.67036 6.09563 3.94183 4.60173C3.97458 4.99644 4.05544 5.41961 4.03473 5.7221C3.95908 6.82486 3.85077 7.51502 4.49322 8.44538C4.7435 8.80774 4.80499 9.32721 4.92681 9.74663C5.04595 10.157 5.52193 10.3722 5.85021 10.625C6.51253 11.1352 7.14617 11.7282 7.84848 12.1772C8.31201 12.4736 8.60154 12.621 8.46579 13.1893C8.35661 13.6464 8.32612 13.9279 8.09079 14.3351C8.01897 14.4594 8.36187 15.2582 8.47599 15.3729C8.82184 15.7203 9.16502 16.0391 9.54201 16.3519C10.1265 16.8371 9.48523 17.4675 9.20649 18.1647V18.1647ZM16.0155 15.8043C14.8331 16.9923 13.354 17.7733 11.7462 18.0789C11.9741 17.5128 12.3798 17.0098 12.7561 16.7182C13.0835 16.4644 13.4935 15.9763 13.6645 15.5896C13.8353 15.2035 14.0617 14.8687 14.2907 14.5136C14.6166 14.0085 13.4873 13.2468 13.1213 13.0871C12.2978 12.7279 11.6778 12.2432 10.9459 11.7258C10.4245 11.3571 9.3658 11.9183 8.77709 11.6601C7.97076 11.3063 7.30645 10.6917 6.60556 10.1614C5.8823 9.61408 5.91726 8.97606 5.91726 8.1687C6.48379 8.1897 7.2897 8.01118 7.66582 8.46892C7.7845 8.61337 8.19258 9.25872 8.46574 9.0294C8.6889 8.84204 8.30038 8.09098 8.22533 7.91441C7.99447 7.37149 8.75135 7.15974 9.13877 6.79158C9.64431 6.31127 10.7287 5.558 10.643 5.21371C10.5573 4.86941 9.55796 3.89396 8.97101 4.04616C8.88304 4.06896 8.10858 4.88485 7.95895 5.01285C7.96292 4.74656 7.96688 4.48031 7.97094 4.21402C7.97348 4.04588 7.65876 3.87329 7.67338 3.76485C7.71028 3.49077 8.46961 2.99336 8.6585 2.77508C8.52616 2.69198 8.07459 2.30227 7.93792 2.35946C7.60701 2.49803 7.23329 2.5935 6.90238 2.73202C6.90238 2.61672 6.88845 2.50841 6.87185 2.40145C7.53496 2.10647 8.23658 1.90135 8.96183 1.79193L9.61147 2.05424L10.0701 2.60115L10.5279 3.07539L10.928 3.20492L11.5636 2.60268L11.3997 2.17274V1.78628C12.6567 1.96971 13.8437 2.44084 14.8833 3.16733C14.6973 3.18406 14.4929 3.21155 14.2623 3.24102C14.1671 3.18448 14.0449 3.15881 13.9411 3.11946C14.2423 3.77022 14.5565 4.412 14.8758 5.05414C15.2168 5.74008 15.9732 6.47584 16.1061 7.19992C16.2626 8.0534 16.154 8.82864 16.2397 9.83278C16.3221 10.7998 17.3247 11.8984 17.3247 11.8984C17.3247 11.8984 17.7877 12.0569 18.1727 12.0017C17.8138 13.4283 17.078 14.7366 16.0155 15.8043V15.8043Z" fill="#6A1B9A"/>
</svg>
