<svg width="1440" height="633" viewBox="0 0 1440 633" fill="none" xmlns="http://www.w3.org/2000/svg">
<path fill-rule="evenodd" clip-rule="evenodd" d="M-65.6562 334.581C-65.6562 334.581 60.4444 519 245.118 519C429.792 519 486.455 312.119 693.629 334.416C900.802 356.712 1009.51 471.2 1188.57 488.38C1536.84 521.796 1782.18 410.129 1782.18 410.129L1688.54 619.251L-120.158 563.841L-65.6562 334.581Z" fill="#E1BEE7"/>
<path fill-rule="evenodd" clip-rule="evenodd" d="M1770.73 312.051C1770.73 312.051 1661.64 517.519 1477.23 531.597C1292.82 545.675 1287.3 425.036 1081.22 463.058C875.143 501.08 876.449 567.228 698.258 598.006C619.453 611.618 467.25 284.974 169.753 471.75C-127.745 658.527 -619.508 181.885 -619.508 181.885L-200.92 599.582L1770.6 622.385L1770.73 312.051Z" fill="#DCEDC8"/>
<path fill-rule="evenodd" clip-rule="evenodd" d="M-71.2394 458.984C-71.2394 458.984 -33.7169 581.566 129.05 581.566C291.816 581.566 335.146 406.028 517.744 428.234C700.341 450.439 796.153 564.456 953.974 581.566C1260.93 614.844 1477.16 503.636 1477.16 503.636L1460.64 622.175L-88.0509 599.428L-71.2394 458.984Z" fill="white"/>
</svg>
