<svg width="17" height="17" viewBox="0 0 17 17" fill="none" xmlns="http://www.w3.org/2000/svg">
<ellipse cx="8.073" cy="8.5756" rx="3.44409" ry="3.46036" fill="#6A1B9A"/>
<path fill-rule="evenodd" clip-rule="evenodd" d="M5.00027 4.95491C5.89239 4.05857 7.07849 3.55965 8.34012 3.55965C9.60175 3.55965 10.7878 4.0612 11.68 4.95753C12.246 5.52625 12.6504 6.20966 12.8706 6.97235H16.4161V2.18434C16.4161 1.06107 15.552 0.192871 14.434 0.192871H2.28837C1.17038 0.192871 0.221924 1.06107 0.221924 2.18434V6.97235H3.80962C4.02984 6.20966 4.43423 5.52362 5.00027 4.95491V4.95491ZM15.0667 3.7182C15.0667 4.01773 14.825 4.26056 14.5268 4.26056H12.9074C12.6092 4.26056 12.3676 4.01777 12.3676 3.7182V2.09113C12.3676 1.7916 12.6092 1.54877 12.9074 1.54877H14.5268C14.825 1.54877 15.0667 1.79156 15.0667 2.09113V3.7182V3.7182Z" fill="#6A1B9A"/>
<path fill-rule="evenodd" clip-rule="evenodd" d="M11.68 11.6661C10.7878 12.5625 9.60175 13.0508 8.34012 13.0508C7.07849 13.0508 5.89239 12.5651 5.00027 11.6688C4.1098 10.7741 3.61874 9.55691 3.61689 8.32812H0.221924V14.3873C0.221924 15.5106 1.17038 16.4635 2.28837 16.4635H14.434C15.552 16.4635 16.4161 15.5106 16.4161 14.3873V8.32812H13.0633C13.0615 9.55691 12.5705 10.7715 11.68 11.6661V11.6661Z" fill="#6A1B9A"/>
</svg>
