<svg width="18" height="19" viewBox="0 0 18 19" fill="none" xmlns="http://www.w3.org/2000/svg">
<path fill-rule="evenodd" clip-rule="evenodd" d="M16.5318 0.677246H1.74905C0.941634 0.677246 0.235718 1.26133 0.235718 2.0633V16.9483C0.235718 17.7549 0.941634 18.4734 1.74905 18.4734H16.5272C17.3392 18.4734 17.9482 17.7502 17.9482 16.9483V2.0633C17.9528 1.26133 17.3392 0.677246 16.5318 0.677246V0.677246ZM5.7262 15.5112H3.1886V7.58432H5.7262V15.5112V15.5112ZM4.54502 6.37906H4.52657C3.71456 6.37906 3.1886 5.77179 3.1886 5.01155C3.1886 4.2374 3.7284 3.64404 4.55886 3.64404C5.38932 3.64404 5.89683 4.23277 5.91528 5.01155C5.91528 5.77179 5.38932 6.37906 4.54502 6.37906V6.37906ZM14.9999 15.5112H12.4623V11.1769C12.4623 10.1385 12.0932 9.4293 11.175 9.4293C10.4737 9.4293 10.0585 9.90677 9.87392 10.3703C9.80471 10.5372 9.78626 10.7644 9.78626 10.9961V15.5112H7.24866V7.58432H9.78626V8.6876C10.1554 8.15914 10.7321 7.3989 12.0747 7.3989C13.7403 7.3989 14.9999 8.50217 14.9999 10.8802V15.5112V15.5112Z" fill="#6A1B9A"/>
</svg>
