<svg width="21" height="17" viewBox="0 0 21 17" fill="none" xmlns="http://www.w3.org/2000/svg">
<path fill-rule="evenodd" clip-rule="evenodd" d="M20.5458 2.54038C19.8201 2.85758 19.0444 3.07179 18.227 3.17066C19.0611 2.67632 19.7033 1.89362 20.0036 0.962618C19.2237 1.41988 18.3604 1.75356 17.4388 1.9307C16.7006 1.15211 15.6496 0.666016 14.4902 0.666016C12.259 0.666016 10.4532 2.45387 10.4532 4.65779C10.4532 4.97087 10.4866 5.27571 10.5575 5.5682C7.20021 5.40342 4.22248 3.8133 2.23316 1.39516C1.887 1.98425 1.68682 2.6722 1.68682 3.40135C1.68682 4.7855 2.40415 6.00898 3.48847 6.72577C2.82119 6.70929 2.19562 6.52804 1.65346 6.22731C1.65346 6.24379 1.65346 6.26027 1.65346 6.27675C1.65346 8.2129 3.0464 9.82362 4.89393 10.1903C4.55612 10.2809 4.19746 10.3303 3.83045 10.3303C3.57188 10.3303 3.31748 10.3056 3.07142 10.2562C3.58439 11.8422 5.07743 12.9956 6.84572 13.0286C5.46528 14.0996 3.72202 14.7382 1.82862 14.7382C1.50332 14.7382 1.18219 14.7176 0.865234 14.6805C2.64603 15.8257 4.76881 16.4848 7.0459 16.4848C14.4819 16.4848 18.5439 10.4003 18.5439 5.12329C18.5439 4.95027 18.5398 4.77726 18.5314 4.60836C19.3197 4.04399 20.0036 3.34368 20.5458 2.54038V2.54038Z" fill="#6A1B9A"/>
</svg>
