<?xml version="1.0" standalone="no"?><svg xmlns="http://www.w3.org/2000/svg" viewBox="0 0 1440 320"><path fill="#E1BEE7" fill-opacity="1" d="M0,96L34.3,112C68.6,128,137,160,206,165.3C274.3,171,343,149,411,122.7C480,96,549,64,617,69.3C685.7,75,754,117,823,117.3C891.4,117,960,75,1029,96C1097.1,117,1166,203,1234,218.7C1302.9,235,1371,181,1406,154.7L1440,128L1440,320L1405.7,320C1371.4,320,1303,320,1234,320C1165.7,320,1097,320,1029,320C960,320,891,320,823,320C754.3,320,686,320,617,320C548.6,320,480,320,411,320C342.9,320,274,320,206,320C137.1,320,69,320,34,320L0,320Z"></path></svg>